<mxfile host="app.diagrams.net" modified="2023-01-11T08:37:31.738Z" agent="5.0 (Macintosh; Intel Mac OS X 10_15_7) AppleWebKit/537.36 (KHTML, like Gecko) Chrome/108.0.0.0 Safari/537.36" etag="ze0cfuy0nHiwd8nmSC7o" version="20.8.3" type="github" pages="2">
  <diagram id="rOIHmVFInO7fY2tX-GWs" name="Page-1">
    <mxGraphModel dx="1194" dy="1861" grid="1" gridSize="10" guides="1" tooltips="1" connect="1" arrows="1" fold="1" page="1" pageScale="1" pageWidth="827" pageHeight="1169" math="0" shadow="0">
      <root>
        <mxCell id="0" />
        <mxCell id="1" parent="0" />
        <mxCell id="w_gV-JhpHCXiJDaaRXHK-1" style="edgeStyle=orthogonalEdgeStyle;rounded=0;orthogonalLoop=1;jettySize=auto;html=1;exitX=0.5;exitY=1;exitDx=0;exitDy=0;" parent="1" edge="1">
          <mxGeometry relative="1" as="geometry">
            <mxPoint x="458" y="150" as="sourcePoint" />
            <mxPoint x="458" y="150" as="targetPoint" />
          </mxGeometry>
        </mxCell>
        <mxCell id="w_gV-JhpHCXiJDaaRXHK-2" value="&lt;font style=&quot;font-size: 12px;&quot;&gt;Login into the admin panel&lt;/font&gt;" style="rounded=1;whiteSpace=wrap;html=1;fontSize=10;fillColor=#d5e8d4;strokeColor=#82b366;" parent="1" vertex="1">
          <mxGeometry x="153" y="80" width="120" height="60" as="geometry" />
        </mxCell>
        <mxCell id="w_gV-JhpHCXiJDaaRXHK-3" value="" style="endArrow=classic;html=1;rounded=0;fontSize=10;exitX=1;exitY=0.5;exitDx=0;exitDy=0;" parent="1" source="w_gV-JhpHCXiJDaaRXHK-2" edge="1">
          <mxGeometry width="50" height="50" relative="1" as="geometry">
            <mxPoint x="463" y="110" as="sourcePoint" />
            <mxPoint x="353" y="110" as="targetPoint" />
          </mxGeometry>
        </mxCell>
        <mxCell id="w_gV-JhpHCXiJDaaRXHK-4" value="&lt;font style=&quot;font-size: 12px;&quot;&gt;Go to the Outlet Management page&lt;/font&gt;" style="rounded=0;whiteSpace=wrap;html=1;fontSize=10;fillColor=#dae8fc;strokeColor=#6c8ebf;" parent="1" vertex="1">
          <mxGeometry x="353" y="80" width="120" height="60" as="geometry" />
        </mxCell>
        <mxCell id="w_gV-JhpHCXiJDaaRXHK-5" value="&lt;font style=&quot;font-size: 12px;&quot;&gt;Click on outlet you want to add table&lt;/font&gt;" style="rounded=0;whiteSpace=wrap;html=1;fontSize=10;fillColor=#dae8fc;strokeColor=#6c8ebf;" parent="1" vertex="1">
          <mxGeometry x="553" y="80" width="120" height="60" as="geometry" />
        </mxCell>
        <mxCell id="w_gV-JhpHCXiJDaaRXHK-6" value="Is POS connected?" style="rhombus;whiteSpace=wrap;html=1;fontSize=12;fillColor=#ffe6cc;strokeColor=#d79b00;" parent="1" vertex="1">
          <mxGeometry x="563" y="320" width="100" height="100" as="geometry" />
        </mxCell>
        <mxCell id="w_gV-JhpHCXiJDaaRXHK-7" value="" style="endArrow=classic;html=1;rounded=0;fontSize=12;entryX=0;entryY=0.5;entryDx=0;entryDy=0;exitX=1;exitY=0.5;exitDx=0;exitDy=0;" parent="1" source="w_gV-JhpHCXiJDaaRXHK-4" target="w_gV-JhpHCXiJDaaRXHK-5" edge="1">
          <mxGeometry width="50" height="50" relative="1" as="geometry">
            <mxPoint x="463" y="170" as="sourcePoint" />
            <mxPoint x="513" y="120" as="targetPoint" />
          </mxGeometry>
        </mxCell>
        <mxCell id="w_gV-JhpHCXiJDaaRXHK-8" value="" style="endArrow=classic;html=1;rounded=0;fontSize=12;entryX=0.5;entryY=0;entryDx=0;entryDy=0;exitX=0.5;exitY=1;exitDx=0;exitDy=0;" parent="1" source="w_gV-JhpHCXiJDaaRXHK-5" target="w_gV-JhpHCXiJDaaRXHK-12" edge="1">
          <mxGeometry width="50" height="50" relative="1" as="geometry">
            <mxPoint x="463" y="160" as="sourcePoint" />
            <mxPoint x="513" y="110" as="targetPoint" />
          </mxGeometry>
        </mxCell>
        <mxCell id="w_gV-JhpHCXiJDaaRXHK-9" value="" style="edgeStyle=orthogonalEdgeStyle;rounded=0;orthogonalLoop=1;jettySize=auto;html=1;fontSize=10;" parent="1" source="w_gV-JhpHCXiJDaaRXHK-10" target="w_gV-JhpHCXiJDaaRXHK-11" edge="1">
          <mxGeometry relative="1" as="geometry" />
        </mxCell>
        <mxCell id="w_gV-JhpHCXiJDaaRXHK-10" value="Select POS type from dropdown" style="whiteSpace=wrap;html=1;fillColor=#dae8fc;strokeColor=#6c8ebf;" parent="1" vertex="1">
          <mxGeometry x="353" y="340" width="120" height="60" as="geometry" />
        </mxCell>
        <mxCell id="w_gV-JhpHCXiJDaaRXHK-11" value="Fill all details and click on Connect button" style="whiteSpace=wrap;html=1;fillColor=#dae8fc;strokeColor=#6c8ebf;" parent="1" vertex="1">
          <mxGeometry x="153" y="340" width="120" height="60" as="geometry" />
        </mxCell>
        <mxCell id="w_gV-JhpHCXiJDaaRXHK-12" value="Outlet Edit page" style="rounded=0;whiteSpace=wrap;html=1;fontSize=12;fillColor=#dae8fc;strokeColor=#6c8ebf;" parent="1" vertex="1">
          <mxGeometry x="553" y="200" width="120" height="60" as="geometry" />
        </mxCell>
        <mxCell id="w_gV-JhpHCXiJDaaRXHK-13" value="" style="endArrow=classic;html=1;rounded=0;fontSize=12;exitX=0.5;exitY=1;exitDx=0;exitDy=0;entryX=0.5;entryY=0;entryDx=0;entryDy=0;" parent="1" source="w_gV-JhpHCXiJDaaRXHK-12" target="w_gV-JhpHCXiJDaaRXHK-6" edge="1">
          <mxGeometry width="50" height="50" relative="1" as="geometry">
            <mxPoint x="390" y="360" as="sourcePoint" />
            <mxPoint x="440" y="310" as="targetPoint" />
          </mxGeometry>
        </mxCell>
        <mxCell id="w_gV-JhpHCXiJDaaRXHK-14" value="No" style="endArrow=classic;html=1;rounded=0;fontSize=12;exitX=0;exitY=0.5;exitDx=0;exitDy=0;entryX=1;entryY=0.5;entryDx=0;entryDy=0;" parent="1" source="w_gV-JhpHCXiJDaaRXHK-6" target="w_gV-JhpHCXiJDaaRXHK-10" edge="1">
          <mxGeometry width="50" height="50" relative="1" as="geometry">
            <mxPoint x="390" y="360" as="sourcePoint" />
            <mxPoint x="440" y="310" as="targetPoint" />
          </mxGeometry>
        </mxCell>
        <mxCell id="w_gV-JhpHCXiJDaaRXHK-15" value="Yes" style="endArrow=classic;html=1;rounded=0;fontSize=12;exitX=0.5;exitY=1;exitDx=0;exitDy=0;entryX=0.5;entryY=0;entryDx=0;entryDy=0;" parent="1" source="w_gV-JhpHCXiJDaaRXHK-6" target="w_gV-JhpHCXiJDaaRXHK-30" edge="1">
          <mxGeometry width="50" height="50" relative="1" as="geometry">
            <mxPoint x="390" y="360" as="sourcePoint" />
            <mxPoint x="613" y="490" as="targetPoint" />
          </mxGeometry>
        </mxCell>
        <mxCell id="w_gV-JhpHCXiJDaaRXHK-21" value="Table and QR Code Page" style="whiteSpace=wrap;html=1;fillColor=#dae8fc;strokeColor=#6c8ebf;" parent="1" vertex="1">
          <mxGeometry x="354" y="480" width="120" height="60" as="geometry" />
        </mxCell>
        <mxCell id="w_gV-JhpHCXiJDaaRXHK-26" value="" style="endArrow=classic;html=1;rounded=0;fontSize=12;exitX=0.5;exitY=0;exitDx=0;exitDy=0;entryX=0;entryY=0.5;entryDx=0;entryDy=0;" parent="1" source="w_gV-JhpHCXiJDaaRXHK-11" target="w_gV-JhpHCXiJDaaRXHK-12" edge="1">
          <mxGeometry width="50" height="50" relative="1" as="geometry">
            <mxPoint x="350" y="240" as="sourcePoint" />
            <mxPoint x="400" y="190" as="targetPoint" />
            <Array as="points">
              <mxPoint x="213" y="230" />
            </Array>
          </mxGeometry>
        </mxCell>
        <mxCell id="w_gV-JhpHCXiJDaaRXHK-27" value="&lt;h4 style=&quot;margin: 1.357em 0px 0px; padding: 0px; font-size: 16px; line-height: 1.428; color: rgb(23, 43, 77); letter-spacing: -0.003em; scroll-margin-top: 56px; font-family: -apple-system, &amp;quot;system-ui&amp;quot;, &amp;quot;Segoe UI&amp;quot;, Roboto, Oxygen, Ubuntu, &amp;quot;Fira Sans&amp;quot;, &amp;quot;Droid Sans&amp;quot;, &amp;quot;Helvetica Neue&amp;quot;, sans-serif; text-align: start; background-color: rgb(255, 255, 255);&quot; data-renderer-start-pos=&quot;4204&quot; id=&quot;Creating-a-Table-QR-Code&quot;&gt;Creating a Table QR Code&lt;/h4&gt;" style="text;html=1;align=center;verticalAlign=middle;resizable=0;points=[];autosize=1;strokeColor=none;fillColor=none;" parent="1" vertex="1">
          <mxGeometry x="304" y="-20" width="220" height="60" as="geometry" />
        </mxCell>
        <mxCell id="w_gV-JhpHCXiJDaaRXHK-32" value="" style="edgeStyle=orthogonalEdgeStyle;rounded=0;orthogonalLoop=1;jettySize=auto;html=1;fontSize=12;" parent="1" source="w_gV-JhpHCXiJDaaRXHK-30" target="w_gV-JhpHCXiJDaaRXHK-21" edge="1">
          <mxGeometry relative="1" as="geometry" />
        </mxCell>
        <mxCell id="w_gV-JhpHCXiJDaaRXHK-30" value="&lt;div style=&quot;&quot;&gt;&lt;font style=&quot;font-size: 12px;&quot;&gt;Click on QR code icon&lt;/font&gt;&lt;/div&gt;" style="rounded=0;whiteSpace=wrap;html=1;fontSize=16;fillColor=#dae8fc;strokeColor=#6c8ebf;align=center;" parent="1" vertex="1">
          <mxGeometry x="553" y="480" width="120" height="60" as="geometry" />
        </mxCell>
        <mxCell id="w_gV-JhpHCXiJDaaRXHK-35" value="Want to create a new table?" style="rhombus;whiteSpace=wrap;html=1;fillColor=#ffe6cc;strokeColor=#d79b00;" parent="1" vertex="1">
          <mxGeometry x="170" y="455" width="113" height="110" as="geometry" />
        </mxCell>
        <mxCell id="w_gV-JhpHCXiJDaaRXHK-43" style="edgeStyle=orthogonalEdgeStyle;rounded=0;orthogonalLoop=1;jettySize=auto;html=1;entryX=0.5;entryY=1;entryDx=0;entryDy=0;fontSize=12;" parent="1" source="w_gV-JhpHCXiJDaaRXHK-39" target="w_gV-JhpHCXiJDaaRXHK-21" edge="1">
          <mxGeometry relative="1" as="geometry">
            <Array as="points">
              <mxPoint x="364" y="560" />
              <mxPoint x="414" y="560" />
            </Array>
          </mxGeometry>
        </mxCell>
        <mxCell id="w_gV-JhpHCXiJDaaRXHK-39" value="Click on Cancel button" style="rounded=0;whiteSpace=wrap;html=1;fontSize=12;fillColor=#dae8fc;strokeColor=#6c8ebf;" parent="1" vertex="1">
          <mxGeometry x="304" y="585" width="120" height="60" as="geometry" />
        </mxCell>
        <mxCell id="w_gV-JhpHCXiJDaaRXHK-40" value="" style="endArrow=classic;html=1;rounded=0;fontSize=12;exitX=0.5;exitY=1;exitDx=0;exitDy=0;entryX=0;entryY=0.5;entryDx=0;entryDy=0;" parent="1" source="w_gV-JhpHCXiJDaaRXHK-35" target="w_gV-JhpHCXiJDaaRXHK-39" edge="1">
          <mxGeometry width="50" height="50" relative="1" as="geometry">
            <mxPoint x="360" y="730" as="sourcePoint" />
            <mxPoint x="410" y="680" as="targetPoint" />
            <Array as="points">
              <mxPoint x="227" y="615" />
            </Array>
          </mxGeometry>
        </mxCell>
        <mxCell id="w_gV-JhpHCXiJDaaRXHK-41" value="No" style="edgeLabel;html=1;align=center;verticalAlign=middle;resizable=0;points=[];fontSize=12;" parent="w_gV-JhpHCXiJDaaRXHK-40" vertex="1" connectable="0">
          <mxGeometry x="-0.6922" y="1" relative="1" as="geometry">
            <mxPoint as="offset" />
          </mxGeometry>
        </mxCell>
        <mxCell id="w_gV-JhpHCXiJDaaRXHK-45" value="" style="endArrow=classic;html=1;rounded=0;fontSize=12;entryX=1;entryY=0.5;entryDx=0;entryDy=0;exitX=0;exitY=0.5;exitDx=0;exitDy=0;" parent="1" source="w_gV-JhpHCXiJDaaRXHK-21" target="w_gV-JhpHCXiJDaaRXHK-35" edge="1">
          <mxGeometry width="50" height="50" relative="1" as="geometry">
            <mxPoint x="340" y="720" as="sourcePoint" />
            <mxPoint x="390" y="670" as="targetPoint" />
          </mxGeometry>
        </mxCell>
        <mxCell id="w_gV-JhpHCXiJDaaRXHK-51" value="" style="edgeStyle=orthogonalEdgeStyle;rounded=0;orthogonalLoop=1;jettySize=auto;html=1;fontSize=12;" parent="1" source="w_gV-JhpHCXiJDaaRXHK-46" target="w_gV-JhpHCXiJDaaRXHK-50" edge="1">
          <mxGeometry relative="1" as="geometry" />
        </mxCell>
        <mxCell id="w_gV-JhpHCXiJDaaRXHK-46" value="Click on Add New Table button&amp;nbsp;" style="rounded=0;whiteSpace=wrap;html=1;fontSize=12;fillColor=#dae8fc;strokeColor=#6c8ebf;" parent="1" vertex="1">
          <mxGeometry x="50" y="585" width="120" height="60" as="geometry" />
        </mxCell>
        <mxCell id="w_gV-JhpHCXiJDaaRXHK-47" value="" style="endArrow=classic;html=1;rounded=0;fontSize=12;entryX=0.5;entryY=0;entryDx=0;entryDy=0;exitX=0;exitY=0.5;exitDx=0;exitDy=0;" parent="1" source="w_gV-JhpHCXiJDaaRXHK-35" target="w_gV-JhpHCXiJDaaRXHK-46" edge="1">
          <mxGeometry width="50" height="50" relative="1" as="geometry">
            <mxPoint x="250" y="570" as="sourcePoint" />
            <mxPoint x="300" y="520" as="targetPoint" />
            <Array as="points">
              <mxPoint x="110" y="510" />
            </Array>
          </mxGeometry>
        </mxCell>
        <mxCell id="w_gV-JhpHCXiJDaaRXHK-48" value="Yes" style="edgeLabel;html=1;align=center;verticalAlign=middle;resizable=0;points=[];fontSize=12;" parent="w_gV-JhpHCXiJDaaRXHK-47" vertex="1" connectable="0">
          <mxGeometry x="-0.5429" relative="1" as="geometry">
            <mxPoint as="offset" />
          </mxGeometry>
        </mxCell>
        <mxCell id="w_gV-JhpHCXiJDaaRXHK-53" value="" style="edgeStyle=orthogonalEdgeStyle;rounded=0;orthogonalLoop=1;jettySize=auto;html=1;fontSize=12;" parent="1" source="w_gV-JhpHCXiJDaaRXHK-50" target="w_gV-JhpHCXiJDaaRXHK-52" edge="1">
          <mxGeometry relative="1" as="geometry" />
        </mxCell>
        <mxCell id="w_gV-JhpHCXiJDaaRXHK-50" value="Enter Table Name" style="whiteSpace=wrap;html=1;fillColor=#dae8fc;strokeColor=#6c8ebf;rounded=0;" parent="1" vertex="1">
          <mxGeometry x="50" y="690" width="120" height="60" as="geometry" />
        </mxCell>
        <mxCell id="w_gV-JhpHCXiJDaaRXHK-55" value="" style="edgeStyle=orthogonalEdgeStyle;rounded=0;orthogonalLoop=1;jettySize=auto;html=1;fontSize=12;" parent="1" source="w_gV-JhpHCXiJDaaRXHK-52" target="w_gV-JhpHCXiJDaaRXHK-54" edge="1">
          <mxGeometry relative="1" as="geometry" />
        </mxCell>
        <mxCell id="w_gV-JhpHCXiJDaaRXHK-52" value="Click On Create" style="whiteSpace=wrap;html=1;fillColor=#dae8fc;strokeColor=#6c8ebf;rounded=0;" parent="1" vertex="1">
          <mxGeometry x="250" y="690" width="120" height="60" as="geometry" />
        </mxCell>
        <mxCell id="w_gV-JhpHCXiJDaaRXHK-54" value="Table And QR Code created successfully" style="whiteSpace=wrap;html=1;fillColor=#d5e8d4;strokeColor=#82b366;rounded=1;shadow=0;glass=0;" parent="1" vertex="1">
          <mxGeometry x="424" y="690" width="120" height="60" as="geometry" />
        </mxCell>
        <mxCell id="w_gV-JhpHCXiJDaaRXHK-56" value="" style="endArrow=classic;html=1;rounded=0;fontSize=12;exitX=0.5;exitY=0;exitDx=0;exitDy=0;" parent="1" source="w_gV-JhpHCXiJDaaRXHK-54" edge="1">
          <mxGeometry width="50" height="50" relative="1" as="geometry">
            <mxPoint x="250" y="580" as="sourcePoint" />
            <mxPoint x="440" y="540" as="targetPoint" />
            <Array as="points">
              <mxPoint x="484" y="560" />
              <mxPoint x="440" y="560" />
            </Array>
          </mxGeometry>
        </mxCell>
      </root>
    </mxGraphModel>
  </diagram>
  <diagram id="Ww3r-FwL1dVULFGI7L9K" name="Page-2">
    <mxGraphModel dx="1194" dy="1861" grid="1" gridSize="10" guides="1" tooltips="1" connect="1" arrows="1" fold="1" page="1" pageScale="1" pageWidth="827" pageHeight="1169" math="0" shadow="0">
      <root>
        <mxCell id="0" />
        <mxCell id="1" parent="0" />
        <mxCell id="LDVuCswuJ0llu2qNrN7m-37" style="edgeStyle=orthogonalEdgeStyle;rounded=0;orthogonalLoop=1;jettySize=auto;html=1;exitX=0.5;exitY=1;exitDx=0;exitDy=0;" edge="1" parent="1">
          <mxGeometry relative="1" as="geometry">
            <mxPoint x="459" y="-1010" as="sourcePoint" />
            <mxPoint x="459" y="-1010" as="targetPoint" />
          </mxGeometry>
        </mxCell>
        <mxCell id="LDVuCswuJ0llu2qNrN7m-38" value="&lt;font style=&quot;font-size: 12px;&quot;&gt;Login into the admin panel&lt;/font&gt;" style="rounded=1;whiteSpace=wrap;html=1;fontSize=10;fillColor=#d5e8d4;strokeColor=#82b366;" vertex="1" parent="1">
          <mxGeometry x="154" y="-1080" width="120" height="60" as="geometry" />
        </mxCell>
        <mxCell id="LDVuCswuJ0llu2qNrN7m-39" value="" style="endArrow=classic;html=1;rounded=0;fontSize=10;exitX=1;exitY=0.5;exitDx=0;exitDy=0;" edge="1" parent="1" source="LDVuCswuJ0llu2qNrN7m-38">
          <mxGeometry width="50" height="50" relative="1" as="geometry">
            <mxPoint x="464" y="-1050" as="sourcePoint" />
            <mxPoint x="354" y="-1050" as="targetPoint" />
          </mxGeometry>
        </mxCell>
        <mxCell id="LDVuCswuJ0llu2qNrN7m-40" value="&lt;font style=&quot;font-size: 12px;&quot;&gt;Go to the Outlet Management page&lt;/font&gt;" style="rounded=0;whiteSpace=wrap;html=1;fontSize=10;fillColor=#dae8fc;strokeColor=#6c8ebf;" vertex="1" parent="1">
          <mxGeometry x="354" y="-1080" width="120" height="60" as="geometry" />
        </mxCell>
        <mxCell id="LDVuCswuJ0llu2qNrN7m-41" value="&lt;font style=&quot;font-size: 12px;&quot;&gt;Click on outlet you want to add table&lt;/font&gt;" style="rounded=0;whiteSpace=wrap;html=1;fontSize=10;fillColor=#dae8fc;strokeColor=#6c8ebf;" vertex="1" parent="1">
          <mxGeometry x="554" y="-1080" width="120" height="60" as="geometry" />
        </mxCell>
        <mxCell id="LDVuCswuJ0llu2qNrN7m-43" value="" style="endArrow=classic;html=1;rounded=0;fontSize=12;entryX=0;entryY=0.5;entryDx=0;entryDy=0;exitX=1;exitY=0.5;exitDx=0;exitDy=0;" edge="1" parent="1" source="LDVuCswuJ0llu2qNrN7m-40" target="LDVuCswuJ0llu2qNrN7m-41">
          <mxGeometry width="50" height="50" relative="1" as="geometry">
            <mxPoint x="464" y="-990" as="sourcePoint" />
            <mxPoint x="514" y="-1040" as="targetPoint" />
          </mxGeometry>
        </mxCell>
        <mxCell id="LDVuCswuJ0llu2qNrN7m-44" value="" style="endArrow=classic;html=1;rounded=0;fontSize=12;entryX=0.5;entryY=0;entryDx=0;entryDy=0;exitX=0.5;exitY=1;exitDx=0;exitDy=0;" edge="1" parent="1" source="LDVuCswuJ0llu2qNrN7m-41" target="LDVuCswuJ0llu2qNrN7m-48">
          <mxGeometry width="50" height="50" relative="1" as="geometry">
            <mxPoint x="464" y="-1000" as="sourcePoint" />
            <mxPoint x="514" y="-1050" as="targetPoint" />
          </mxGeometry>
        </mxCell>
        <mxCell id="LDVuCswuJ0llu2qNrN7m-48" value="Outlet Edit page" style="rounded=0;whiteSpace=wrap;html=1;fontSize=12;fillColor=#dae8fc;strokeColor=#6c8ebf;" vertex="1" parent="1">
          <mxGeometry x="554" y="-971" width="120" height="60" as="geometry" />
        </mxCell>
        <mxCell id="LDVuCswuJ0llu2qNrN7m-75" value="" style="edgeStyle=orthogonalEdgeStyle;rounded=0;orthogonalLoop=1;jettySize=auto;html=1;fontSize=12;" edge="1" parent="1" source="LDVuCswuJ0llu2qNrN7m-52" target="LDVuCswuJ0llu2qNrN7m-74">
          <mxGeometry relative="1" as="geometry" />
        </mxCell>
        <mxCell id="LDVuCswuJ0llu2qNrN7m-52" value="Table and QR Code Page" style="whiteSpace=wrap;html=1;fillColor=#dae8fc;strokeColor=#6c8ebf;" vertex="1" parent="1">
          <mxGeometry x="154" y="-971" width="120" height="60" as="geometry" />
        </mxCell>
        <mxCell id="LDVuCswuJ0llu2qNrN7m-54" value="&lt;h4 style=&quot;margin: 1.357em 0px 0px; padding: 0px; font-size: 16px; line-height: 1.428; color: rgb(23, 43, 77); letter-spacing: -0.003em; scroll-margin-top: 56px; font-family: -apple-system, &amp;quot;system-ui&amp;quot;, &amp;quot;Segoe UI&amp;quot;, Roboto, Oxygen, Ubuntu, &amp;quot;Fira Sans&amp;quot;, &amp;quot;Droid Sans&amp;quot;, &amp;quot;Helvetica Neue&amp;quot;, sans-serif; text-align: start; background-color: rgb(255, 255, 255);&quot; data-renderer-start-pos=&quot;4204&quot; id=&quot;Creating-a-Table-QR-Code&quot;&gt;Editing/ Accessing Table QR Code&lt;/h4&gt;" style="text;html=1;align=center;verticalAlign=middle;resizable=0;points=[];autosize=1;strokeColor=none;fillColor=none;" vertex="1" parent="1">
          <mxGeometry x="274" y="-1169" width="280" height="60" as="geometry" />
        </mxCell>
        <mxCell id="LDVuCswuJ0llu2qNrN7m-55" value="" style="edgeStyle=orthogonalEdgeStyle;rounded=0;orthogonalLoop=1;jettySize=auto;html=1;fontSize=12;" edge="1" parent="1" source="LDVuCswuJ0llu2qNrN7m-56" target="LDVuCswuJ0llu2qNrN7m-52">
          <mxGeometry relative="1" as="geometry" />
        </mxCell>
        <mxCell id="LDVuCswuJ0llu2qNrN7m-56" value="&lt;div style=&quot;&quot;&gt;&lt;font style=&quot;font-size: 12px;&quot;&gt;Click on QR code icon&lt;/font&gt;&lt;/div&gt;" style="rounded=0;whiteSpace=wrap;html=1;fontSize=16;fillColor=#dae8fc;strokeColor=#6c8ebf;align=center;" vertex="1" parent="1">
          <mxGeometry x="354" y="-971" width="120" height="60" as="geometry" />
        </mxCell>
        <mxCell id="LDVuCswuJ0llu2qNrN7m-57" value="Want to create a new table?" style="rhombus;whiteSpace=wrap;html=1;fillColor=#ffe6cc;strokeColor=#d79b00;" vertex="1" parent="1">
          <mxGeometry x="210" y="-694" width="113" height="110" as="geometry" />
        </mxCell>
        <mxCell id="LDVuCswuJ0llu2qNrN7m-59" value="Click on Cancel button" style="rounded=0;whiteSpace=wrap;html=1;fontSize=12;fillColor=#dae8fc;strokeColor=#6c8ebf;" vertex="1" parent="1">
          <mxGeometry x="344" y="-564" width="120" height="60" as="geometry" />
        </mxCell>
        <mxCell id="LDVuCswuJ0llu2qNrN7m-60" value="" style="endArrow=classic;html=1;rounded=0;fontSize=12;exitX=0.5;exitY=1;exitDx=0;exitDy=0;entryX=0;entryY=0.5;entryDx=0;entryDy=0;" edge="1" parent="1" source="LDVuCswuJ0llu2qNrN7m-57" target="LDVuCswuJ0llu2qNrN7m-59">
          <mxGeometry width="50" height="50" relative="1" as="geometry">
            <mxPoint x="400" y="-419" as="sourcePoint" />
            <mxPoint x="450" y="-469" as="targetPoint" />
            <Array as="points">
              <mxPoint x="267" y="-534" />
            </Array>
          </mxGeometry>
        </mxCell>
        <mxCell id="LDVuCswuJ0llu2qNrN7m-61" value="No" style="edgeLabel;html=1;align=center;verticalAlign=middle;resizable=0;points=[];fontSize=12;" vertex="1" connectable="0" parent="LDVuCswuJ0llu2qNrN7m-60">
          <mxGeometry x="-0.6922" y="1" relative="1" as="geometry">
            <mxPoint as="offset" />
          </mxGeometry>
        </mxCell>
        <mxCell id="LDVuCswuJ0llu2qNrN7m-63" value="" style="edgeStyle=orthogonalEdgeStyle;rounded=0;orthogonalLoop=1;jettySize=auto;html=1;fontSize=12;" edge="1" parent="1" source="LDVuCswuJ0llu2qNrN7m-64" target="LDVuCswuJ0llu2qNrN7m-68">
          <mxGeometry relative="1" as="geometry" />
        </mxCell>
        <mxCell id="LDVuCswuJ0llu2qNrN7m-64" value="Click on Add New Table button&amp;nbsp;" style="rounded=0;whiteSpace=wrap;html=1;fontSize=12;fillColor=#dae8fc;strokeColor=#6c8ebf;" vertex="1" parent="1">
          <mxGeometry x="90" y="-564" width="120" height="60" as="geometry" />
        </mxCell>
        <mxCell id="LDVuCswuJ0llu2qNrN7m-65" value="" style="endArrow=classic;html=1;rounded=0;fontSize=12;entryX=0.5;entryY=0;entryDx=0;entryDy=0;exitX=0;exitY=0.5;exitDx=0;exitDy=0;" edge="1" parent="1" source="LDVuCswuJ0llu2qNrN7m-57" target="LDVuCswuJ0llu2qNrN7m-64">
          <mxGeometry width="50" height="50" relative="1" as="geometry">
            <mxPoint x="290" y="-579" as="sourcePoint" />
            <mxPoint x="340" y="-629" as="targetPoint" />
            <Array as="points">
              <mxPoint x="150" y="-639" />
            </Array>
          </mxGeometry>
        </mxCell>
        <mxCell id="LDVuCswuJ0llu2qNrN7m-66" value="Yes" style="edgeLabel;html=1;align=center;verticalAlign=middle;resizable=0;points=[];fontSize=12;" vertex="1" connectable="0" parent="LDVuCswuJ0llu2qNrN7m-65">
          <mxGeometry x="-0.5429" relative="1" as="geometry">
            <mxPoint as="offset" />
          </mxGeometry>
        </mxCell>
        <mxCell id="LDVuCswuJ0llu2qNrN7m-67" value="" style="edgeStyle=orthogonalEdgeStyle;rounded=0;orthogonalLoop=1;jettySize=auto;html=1;fontSize=12;" edge="1" parent="1" source="LDVuCswuJ0llu2qNrN7m-68" target="LDVuCswuJ0llu2qNrN7m-70">
          <mxGeometry relative="1" as="geometry" />
        </mxCell>
        <mxCell id="LDVuCswuJ0llu2qNrN7m-68" value="Enter Table Name" style="whiteSpace=wrap;html=1;fillColor=#dae8fc;strokeColor=#6c8ebf;rounded=0;" vertex="1" parent="1">
          <mxGeometry x="90" y="-459" width="120" height="60" as="geometry" />
        </mxCell>
        <mxCell id="LDVuCswuJ0llu2qNrN7m-69" value="" style="edgeStyle=orthogonalEdgeStyle;rounded=0;orthogonalLoop=1;jettySize=auto;html=1;fontSize=12;" edge="1" parent="1" source="LDVuCswuJ0llu2qNrN7m-70" target="LDVuCswuJ0llu2qNrN7m-71">
          <mxGeometry relative="1" as="geometry" />
        </mxCell>
        <mxCell id="LDVuCswuJ0llu2qNrN7m-70" value="Click On Create" style="whiteSpace=wrap;html=1;fillColor=#dae8fc;strokeColor=#6c8ebf;rounded=0;" vertex="1" parent="1">
          <mxGeometry x="290" y="-459" width="120" height="60" as="geometry" />
        </mxCell>
        <mxCell id="LDVuCswuJ0llu2qNrN7m-71" value="Table And QR Code created successfully" style="whiteSpace=wrap;html=1;fillColor=#dae8fc;strokeColor=#6c8ebf;rounded=0;" vertex="1" parent="1">
          <mxGeometry x="464" y="-459" width="120" height="60" as="geometry" />
        </mxCell>
        <mxCell id="LDVuCswuJ0llu2qNrN7m-72" value="" style="endArrow=classic;html=1;rounded=0;fontSize=12;exitX=0.5;exitY=0;exitDx=0;exitDy=0;" edge="1" parent="1" source="LDVuCswuJ0llu2qNrN7m-71">
          <mxGeometry width="50" height="50" relative="1" as="geometry">
            <mxPoint x="290" y="-569" as="sourcePoint" />
            <mxPoint x="480" y="-609" as="targetPoint" />
            <Array as="points">
              <mxPoint x="524" y="-589" />
              <mxPoint x="480" y="-589" />
            </Array>
          </mxGeometry>
        </mxCell>
        <mxCell id="LDVuCswuJ0llu2qNrN7m-73" value="" style="endArrow=classic;html=1;rounded=0;fontSize=12;entryX=1;entryY=0.5;entryDx=0;entryDy=0;" edge="1" parent="1" target="LDVuCswuJ0llu2qNrN7m-56">
          <mxGeometry width="50" height="50" relative="1" as="geometry">
            <mxPoint x="551" y="-941" as="sourcePoint" />
            <mxPoint x="371" y="-781" as="targetPoint" />
          </mxGeometry>
        </mxCell>
        <mxCell id="LDVuCswuJ0llu2qNrN7m-74" value="Click on the Table you want QR code" style="whiteSpace=wrap;html=1;fillColor=#dae8fc;strokeColor=#6c8ebf;" vertex="1" parent="1">
          <mxGeometry x="154" y="-860" width="120" height="60" as="geometry" />
        </mxCell>
      </root>
    </mxGraphModel>
  </diagram>
</mxfile>
